<?xml version="1.0" encoding="UTF-8"?>
<svg width="56px" height="30px" viewBox="0 0 56 30" version="1.1" xmlns="http://www.w3.org/2000/svg" xmlns:xlink="http://www.w3.org/1999/xlink">
    <!-- Generator: Sketch 50.2 (55047) - http://www.bohemiancoding.com/sketch -->
    <title>hb-logo-initials (1)</title>
    <desc>Created with Sketch.</desc>
    <defs></defs>
    <g id="Page-1" stroke="none" stroke-width="1" fill="none" fill-rule="evenodd">
        <g id="hb-logo-initials-(1)" fill="#FFFFFF" fill-rule="nonzero">
            <path d="M35,30 L46.4469711,30 C49.3002043,30 51.7459398,29.2080378 53.1563935,27.8277702 L53.1780154,27.8085757 C54.9897585,26.3953413 55.8333333,24.6061336 55.8333333,22.1803631 C55.8333333,20.368816 55.1273037,18.6810029 53.8469025,17.427614 C52.629012,16.2369055 50.9146745,14.8115254 48.469046,14.3559546 L48.4604829,13.852235 C50.3704879,13.435487 51.7467961,12.6094736 52.7898917,11.2526298 L52.8060546,11.2314833 L52.8238231,11.2154337 C53.8011968,10.3646952 54.4584166,8.64044505 54.4584166,6.92129178 C54.4584166,4.42546685 53.7269117,2.78265773 52.1611443,1.75212007 C50.2706204,0.508057345 48.216969,0 45.07366,0 L35,0 L35,1.27887306 C36.2898207,1.28158414 36.9586007,1.31140608 37.3545382,1.82835578 C37.7241441,2.30702496 38.0976034,3.65161472 38.0976034,5.57529225 L38.0976034,24.4238402 C38.0976034,26.3477346 37.7241441,27.6916737 37.3545382,28.1715358 C37.025179,28.6008632 36.3524385,29.1068601 35,29.1640098 L35,30 Z M45.4170413,28.7203678 C44.2910974,28.7203678 43.2279855,28.7203678 42.807322,28.1708851 C42.409886,27.653827 42.409886,26.3656278 42.409886,24.8727959 L42.409886,14.7445073 L44.040626,14.7445073 C46.731481,14.7445073 48.3823444,15.3226191 49.3890467,16.6167827 C50.4012081,17.5153447 50.8334318,19.1815776 50.8334318,22.1803631 C50.8334318,24.5340187 50.4460575,25.9143948 49.4044604,27.2739497 C48.6878339,28.2063461 47.2712789,28.7203678 45.4170413,28.7203678 Z M44.0407331,13.9104691 L42.409993,13.9104691 L42.409993,5.5754007 C42.409993,3.66712213 42.409993,2.79643004 42.8058234,2.27698614 C43.0362785,1.97573037 43.7214356,1.2789815 45.073767,1.2789815 C46.5252167,1.2789815 47.6340343,1.76589238 48.3717475,2.72507428 C49.0621494,3.62439543 49.8029668,5.46218579 49.8029668,7.3713319 C49.8029668,9.24078773 49.3343498,10.7601883 48.3717475,12.016722 L48.3562268,12.0371093 L48.3361035,12.0535927 C46.8978197,13.3029692 45.492825,13.9104691 44.0407331,13.9104691 Z" id="Shape"></path>
            <path d="M24.165917,30 L24.165917,28.9939246 C23.4151161,28.9183524 21.2568445,28.4609074 21.2568445,25.6999736 L21.2568445,4.30089378 C21.2568445,1.53909263 23.4155444,1.08175605 24.1666667,1.00618384 L24.1666667,0 L13.9888214,0 L13.9888214,1.00607541 C14.740372,1.08164763 16.8983223,1.53909263 16.8983223,4.30078536 L16.8983223,13.9433443 L7.26759472,13.9433443 L7.26759472,4.30089378 C7.26759472,1.53909263 9.42393875,1.08175605 10.1751681,1.00618384 L10.1751681,0 L0,0 L0,1.00607541 C0.751122219,1.0824066 2.90682371,1.5398516 2.90682371,4.30078536 L2.90682371,25.6999736 C2.90682371,28.4609074 0.750800952,28.9183524 0,28.9939246 L0,30 L10.1762389,30 L10.1762389,28.9939246 C9.42543799,28.9183524 7.26823726,28.4609074 7.26823726,25.6999736 L7.26823726,15.3128603 L16.8975727,15.3128603 L16.8975727,25.6999736 C16.8975727,27.3929213 16.0613147,28.2019885 15.360096,28.583536 C14.8312905,28.8712959 14.2948817,28.9645414 13.9889285,28.9946836 L13.9889285,30 L24.165917,30 Z" id="Shape"></path>
            <path d="M28.131783,5 C28.0415879,5 27.9878798,5.00430391 27.9878798,5.00430391 L27.9704435,5.0050571 C24.8296498,5.0050571 23.6582967,7.83509382 23.6582967,9.61820417 C23.6582967,11.3029702 24.5921072,12.9017655 24.601794,12.9188736 L24.7013531,13.0855425 L24.5392602,13.1928175 C21.676371,15.0792217 21.6659307,18.5672188 21.6666841,18.6021881 C21.6666841,19.28651 21.8926026,20.7890053 22.7415995,22.0879257 C23.8238339,23.7442859 25.5371114,24.5833333 27.8323523,24.5833333 C30.1796868,24.5833333 31.9687369,23.7566596 33.1505304,22.1259077 C34.1029612,20.8116009 34.4411392,19.2418569 34.4411392,18.2099942 C34.4411392,16.2886207 33.8563775,14.9054513 33.8511035,14.8917864 L33.7469163,14.6516282 L34.0049089,14.609665 C36.3452474,14.2361931 37.9166667,11.9308032 37.9166667,10.0116892 C37.9166667,8.05760602 36.5077709,6.20929141 35.016537,6.20929141 C33.4762232,6.20929141 33.0658244,7.71060319 33.0658244,8.59785445 C33.0658244,9.53642986 33.6527388,10.0967991 34.222755,10.0967991 C34.7016073,10.0967991 35.0080341,9.95186488 35.1565655,9.6553254 C35.4418965,9.08365842 35.072613,8.0727773 34.8991111,7.84198007 C34.6977326,7.57373882 34.652635,7.2310399 34.784053,6.96990009 C34.8641308,6.81022499 35.0819769,6.54123055 35.6417681,6.54123055 C36.585696,6.54123055 37.2123264,7.76623124 37.2123264,8.5761197 C37.2123264,9.32306347 37.2123264,10.4528401 36.1618433,11.0680842 C35.1837963,11.6413652 34.6123809,11.8275093 32.2067101,12.6144795 C29.5624204,13.478382 29.4285269,15.6143055 29.4285269,16.0337216 C29.4285269,16.9038648 29.6486332,18.3760176 30.4751352,18.3760176 C31.3141224,18.3760176 31.6856662,17.3667505 31.6856662,16.9828416 C31.6856662,16.6202371 31.3902178,15.9459218 31.1118829,15.9459218 C31.0948771,15.9459218 31.0792706,15.9474282 31.0621572,15.9525929 C30.9836938,15.9743276 30.9042618,15.9844418 30.8257985,15.9844418 C30.5241075,15.9844418 30.2566433,15.8320834 30.1275932,15.5853617 C29.9923004,15.327665 30.0320165,15.0089604 30.2387765,14.7116677 C30.6150561,14.1684065 31.3389853,14.1105189 31.6328192,14.1105189 C31.7082688,14.1105189 31.759609,14.1127785 31.7822116,14.1158988 C32.6599462,14.1190192 33.2018706,14.6048231 33.5013013,15.0120807 C33.8534714,15.4889541 34.0634604,16.1306672 34.0634604,16.7279425 C34.0634604,17.3372687 33.9625021,18.520629 33.2875452,19.5898281 C32.4213272,20.9616998 30.9378428,21.6565662 28.8759469,21.6565662 C23.8387946,21.6565662 23.2952558,17.9175435 23.2952558,16.3104631 C23.2952558,14.341639 24.8518219,13.6988498 24.9179076,13.6716276 L25.0714977,13.6113729 L25.1636303,13.7469461 C25.6904863,14.5281059 26.63506,14.8794127 27.1381294,14.8794127 C27.5762971,14.8794127 28.4809395,14.572759 28.4809395,13.6244998 C28.4809395,12.725628 27.9226551,12.1667651 27.0235019,12.1667651 C26.1087421,12.1667651 25.6402224,12.3820683 25.6355942,12.3844354 L25.3944997,12.4987042 L25.3474648,12.2356277 C24.828143,9.33834235 25.6106237,7.1488352 26.5173111,6.06607877 C27.0351261,5.44771435 27.6505628,5.1066294 28.249209,5.1066294 C30.0918595,5.1066294 30.5614556,6.48000742 30.5864261,6.8484222 C30.5996648,7.03305999 30.5436964,7.20790638 30.4324055,7.32723231 C30.3405958,7.42557668 30.2225241,7.47883758 30.1003624,7.47883758 C29.9744336,7.47883758 29.8577611,7.42363992 29.7668125,7.32217521 C29.6462653,7.18692481 29.4238987,7.1827285 29.4223919,7.1827285 C29.1113369,7.1827285 28.8765927,7.27364862 28.7031984,7.46097635 C28.392897,7.79786499 28.3688951,8.38470326 28.383533,8.58182239 L28.3851475,8.59968362 L28.383533,8.61797524 C28.3820262,8.6245387 28.3260578,9.2922905 28.7163295,9.71740932 C28.9386961,9.96154868 29.273107,10.0858241 29.7107365,10.0858241 C31.1678512,10.0858241 31.2417941,8.35091756 31.2456688,8.24869967 C31.2433009,5.23510114 28.8626006,5 28.131783,5 Z M27.0918479,14.5242324 C26.2338099,14.5242324 25.7980101,13.7267177 25.6884413,13.3054724 L25.6476489,13.1519303 L25.7880004,13.0754283 C26.2848272,12.8034212 26.798014,12.6525691 27.2349977,12.6525691 C27.7026564,12.6525691 28.0342689,12.8301054 28.1423309,13.1403098 C28.2676139,13.499794 28.2352169,13.8655188 28.0537502,14.1208483 C27.9234085,14.3038721 27.6504551,14.5242324 27.0918479,14.5242324 Z" id="Shape"></path>
        </g>
    </g>
</svg>