<svg height="28" viewBox="0 0 67 28" width="67" xmlns="http://www.w3.org/2000/svg"><g fill="none" fill-rule="evenodd"><path d="m34.7020589 3.40472516v24.06790714h1.6978756v-27.08606913h-2.5468134l-5.6338598 23.95182393-5.6724479-23.95182393h-2.5468134v27.08606913h1.5821113v-23.99051838l5.711036 23.95182398h1.7750518zm5.2232362-3.01816199v27.08606913h3.0098704v-10.6796501h2.6625776c4.283277 0 6.2898572-2.2442743 6.2898572-6.539351v-3.25032829c0-4.10160475-1.8136398-6.61673974-6.0583287-6.61673974zm3.0098704 13.69781213v-10.95051084h2.8941061c2.1995206 0 3.0870465 1.23822031 3.0870465 3.71466091v3.59857773c0 2.5925238-1.0804663 3.6372722-3.318575 3.6372722z"/><g transform="translate(50 1)"><path d="m10.9295795.41180331 1.4004705 2.77921569 2.7792942 1.40054902c.3697255.18486274.5170196.63756863.3320784 1.00729412-.0752157.14886274-.1943529.26164706-.3320784.33215686l-2.7792942 1.40054902-1.4004705 2.77921568c-.1847844.3697255-.6376471.5185882-1.00737259.3321569-.14878432-.0752157-.26156863-.1942745-.33207843-.3321569l-1.3989804-2.77921568-2.77937254-1.40054902c-.36972549-.18643137-.51694118-.63764706-.332-1.00737255.07521568-.14878431.19435294-.26156863.332-.33207843l2.77937254-1.40054902 1.3989804-2.77921569c.18643137-.36972549.63764702-.51694117 1.00737252-.33207843.1487843.07364706.2616471.19270589.3320785.33207843zm.1723137 3.67529412-.8414118-1.67003921-.84125488 1.67003921c-.07050981.13788235-.18337255.25694118-.33215687.33215686l-1.67152941.84125491 1.67152941.84290196c.13788236.0705098.25694118.18329411.33215687.33207843l.84125488 1.67160784.8414118-1.67160784c.0704314-.13788235.1832941-.25694118.332-.33207843l1.6716078-.84290196-1.6716078-.84125491c-.1377255-.0705098-.2567843-.18329411-.332-.33215686z"/><path d="m7.72183784 21.0888649h-3.0887027v-3.0888649h-1.54443244v3.0888649h-3.0887027v1.5444324h3.0887027v3.0888649h1.54443244v-3.0888649h3.0887027z"/><path d="m16.5211819 16.6881128h-2.6879717v-2.6881128h-1.3440564v2.6881128h-2.68797166v1.3440564h2.68797166v2.6881128h1.3440564v-2.6881128h2.6879717z"/></g><g transform="translate(0 2)"><path d="m5.92957946 8.41180331 1.40047059 2.77921569 2.77929415 1.400549c.3697255.1848628.5170196.6375686.3320784 1.0072941-.0752157.1488628-.1943529.2616471-.3320784.3321569l-2.77929415 1.400549-1.40047059 2.7792157c-.18478432.3697255-.63764706.5185882-1.00737255.3321569-.14878432-.0752157-.26156863-.1942745-.33207843-.3321569l-1.3989804-2.7792157-2.77937254-1.400549c-.36972549-.1864314-.51694118-.6376471-.332-1.0073725.07521568-.1487844.19435294-.2615687.332-.3320785l2.77937254-1.400549 1.3989804-2.77921569c.18643137-.36972549.63764706-.51694117 1.00737255-.33207843.14878431.07364706.26164705.19270588.33207843.33207843zm.17231372 3.67529409-.84141176-1.6700392-.8412549 1.6700392c-.07050981.1378824-.18337255.2569412-.33215687.3321569l-1.67152941.8412549 1.67152941.842902c.13788236.0705098.25694118.1832941.33215687.3320784l.8412549 1.6716078.84141176-1.6716078c.07043138-.1378824.18329412-.2569412.332-.3320784l1.67160785-.842902-1.67160785-.8412549c-.13772549-.0705098-.25678431-.1832941-.332-.3321569z"/><path d="m16.7218378 3.08886486h-3.0887027v-3.08886486h-1.5444324v3.08886486h-3.0887027v1.54443244h3.0887027v3.08886486h1.5444324v-3.08886486h3.0887027z"/><path d="m15.7199998 19.288096h-2.2879759v-2.288096h-1.144048v2.288096h-2.2879759v1.144048h2.2879759v2.288096h1.144048v-2.288096h2.2879759z"/></g></g></svg>